<svg xmlns="http://www.w3.org/2000/svg" xmlns:xlink="http://www.w3.org/1999/xlink" viewBox="0 0 75.09 75.76"><defs><style>.cls-1{fill:url(#linear-gradient);}</style><linearGradient id="linear-gradient" y1="37.88" x2="75.09" y2="37.88" gradientUnits="userSpaceOnUse"><stop offset="0" stop-color="#d4145a"/><stop offset="1" stop-color="#ff931e"/></linearGradient></defs><g id="Layer_2" data-name="Layer 2"><g id="Layer_1-2" data-name="Layer 1"><path class="cls-1" d="M18,70.93A33.67,33.67,0,0,1,4.73,57.45,40.11,40.11,0,0,1,0,37.83,39.86,39.86,0,0,1,4.73,18.26,33.74,33.74,0,0,1,18,4.83,39,39,0,0,1,37.55,0,38.87,38.87,0,0,1,57,4.83,34,34,0,0,1,70.31,18.26a39.56,39.56,0,0,1,4.78,19.57,39.81,39.81,0,0,1-4.78,19.62A34.1,34.1,0,0,1,57,70.93a38.8,38.8,0,0,1-19.48,4.83A39,39,0,0,1,18,70.93ZM52,63A26.89,26.89,0,0,0,62,52.59a30.53,30.53,0,0,0,3.59-14.76A30.46,30.46,0,0,0,62,23.08a26.56,26.56,0,0,0-10-10.4A27.82,27.82,0,0,0,37.55,8.89,27.83,27.83,0,0,0,23,12.68a26.56,26.56,0,0,0-10,10.4A30.46,30.46,0,0,0,9.46,37.83a30.53,30.53,0,0,0,3.59,14.76A26.89,26.89,0,0,0,23.07,63a27.72,27.72,0,0,0,14.48,3.84A27.71,27.71,0,0,0,52,63Z"/></g></g></svg>