<svg xmlns="http://www.w3.org/2000/svg" xmlns:xlink="http://www.w3.org/1999/xlink" viewBox="0 0 54.55 50"><defs><style>.cls-1{fill:url(#linear-gradient);}.cls-2{fill:url(#linear-gradient-2);}</style><linearGradient id="linear-gradient" x1="-5.15" y1="42.65" x2="30.15" y2="7.35" gradientUnits="userSpaceOnUse"><stop offset="0" stop-color="#d4145a"/><stop offset="1" stop-color="#ff931e"/></linearGradient><linearGradient id="linear-gradient-2" x1="24.38" y1="42.67" x2="59.71" y2="7.33" xlink:href="#linear-gradient"/></defs><g id="Layer_2" data-name="Layer 2"><g id="Layer_1-2" data-name="Layer 1"><path class="cls-1" d="M11.06,14.86V35.14a3.76,3.76,0,0,0,3.76,3.76h6.42A3.76,3.76,0,0,1,25,42.67v3.57A3.76,3.76,0,0,1,21.24,50H3.76A3.76,3.76,0,0,1,0,46.24V3.76A3.76,3.76,0,0,1,3.76,0H21.24A3.76,3.76,0,0,1,25,3.76V7.33a3.76,3.76,0,0,1-3.76,3.77H14.82A3.76,3.76,0,0,0,11.06,14.86Z"/><path class="cls-2" d="M43.48,14.8V35.2a3.69,3.69,0,0,1-3.69,3.7H33.24a3.7,3.7,0,0,0-3.69,3.7v3.7A3.7,3.7,0,0,0,33.24,50H50.85a3.7,3.7,0,0,0,3.7-3.7V3.7A3.7,3.7,0,0,0,50.85,0H33.24a3.7,3.7,0,0,0-3.69,3.7V7.4a3.7,3.7,0,0,0,3.69,3.7h6.55A3.69,3.69,0,0,1,43.48,14.8Z"/></g></g></svg>